<svg width="128" height="128" viewBox="0 0 128 128" xmlns="http://www.w3.org/2000/svg">
  <style>
    .pixel { fill: #4A90E2; }
    .pixel-dark { fill: #2E5A87; }
    .pixel-light { fill: #7BB3F0; }
    .pixel-eye { fill: #FFFFFF; }
    .pixel-pupil { fill: #000000; }
    .pixel-fin { fill: #5BA0E8; }
  </style>
  
  <!-- Fish body -->
  <rect x="32" y="48" width="8" height="8" class="pixel"/>
  <rect x="40" y="40" width="8" height="8" class="pixel"/>
  <rect x="48" y="32" width="8" height="8" class="pixel"/>
  <rect x="56" y="32" width="8" height="8" class="pixel"/>
  <rect x="64" y="32" width="8" height="8" class="pixel"/>
  <rect x="72" y="40" width="8" height="8" class="pixel"/>
  <rect x="80" y="48" width="8" height="8" class="pixel"/>
  <rect x="88" y="56" width="8" height="8" class="pixel"/>
  <rect x="80" y="64" width="8" height="8" class="pixel"/>
  <rect x="72" y="72" width="8" height="8" class="pixel"/>
  <rect x="64" y="80" width="8" height="8" class="pixel"/>
  <rect x="56" y="80" width="8" height="8" class="pixel"/>
  <rect x="48" y="80" width="8" height="8" class="pixel"/>
  <rect x="40" y="72" width="8" height="8" class="pixel"/>
  <rect x="32" y="64" width="8" height="8" class="pixel"/>
  
  <!-- Fill body -->
  <rect x="40" y="48" width="8" height="8" class="pixel"/>
  <rect x="48" y="40" width="8" height="8" class="pixel"/>
  <rect x="56" y="40" width="8" height="8" class="pixel"/>
  <rect x="64" y="40" width="8" height="8" class="pixel"/>
  <rect x="72" y="48" width="8" height="8" class="pixel"/>
  <rect x="80" y="56" width="8" height="8" class="pixel"/>
  <rect x="72" y="64" width="8" height="8" class="pixel"/>
  <rect x="64" y="72" width="8" height="8" class="pixel"/>
  <rect x="56" y="72" width="8" height="8" class="pixel"/>
  <rect x="48" y="72" width="8" height="8" class="pixel"/>
  <rect x="40" y="64" width="8" height="8" class="pixel"/>
  <rect x="40" y="56" width="8" height="8" class="pixel"/>
  <rect x="48" y="48" width="8" height="8" class="pixel"/>
  <rect x="56" y="48" width="8" height="8" class="pixel"/>
  <rect x="64" y="48" width="8" height="8" class="pixel"/>
  <rect x="48" y="56" width="8" height="8" class="pixel"/>
  <rect x="56" y="56" width="8" height="8" class="pixel"/>
  <rect x="64" y="56" width="8" height="8" class="pixel"/>
  <rect x="48" y="64" width="8" height="8" class="pixel"/>
  <rect x="56" y="64" width="8" height="8" class="pixel"/>
  <rect x="64" y="64" width="8" height="8" class="pixel"/>
  
  <!-- Eye -->
  <rect x="64" y="48" width="8" height="8" class="pixel-eye"/>
  <rect x="68" y="52" width="4" height="4" class="pixel-pupil"/>
  
  <!-- Tail -->
  <rect x="16" y="48" width="8" height="8" class="pixel-fin"/>
  <rect x="24" y="40" width="8" height="8" class="pixel-fin"/>
  <rect x="24" y="56" width="8" height="8" class="pixel-fin"/>
  <rect x="24" y="72" width="8" height="8" class="pixel-fin"/>
  <rect x="16" y="64" width="8" height="8" class="pixel-fin"/>
  
  <!-- Top fin -->
  <rect x="56" y="24" width="8" height="8" class="pixel-fin"/>
  <rect x="64" y="16" width="8" height="8" class="pixel-fin"/>
  
  <!-- Bottom fin -->
  <rect x="56" y="88" width="8" height="8" class="pixel-fin"/>
  <rect x="64" y="96" width="8" height="8" class="pixel-fin"/>
</svg>
