<svg width="128" height="128" viewBox="0 0 128 128" xmlns="http://www.w3.org/2000/svg">
  <style>
    .pixel { fill: #16A085; }
    .pixel-dark { fill: #138D75; }
    .pixel-light { fill: #48C9B0; }
    .pixel-eye { fill: #000000; }
    .pixel-fin { fill: #1ABC9C; }
  </style>
  
  <!-- Seahorse body -->
  <rect x="56" y="24" width="8" height="8" class="pixel"/>
  <rect x="64" y="32" width="8" height="8" class="pixel"/>
  <rect x="64" y="40" width="8" height="8" class="pixel"/>
  <rect x="64" y="48" width="8" height="8" class="pixel"/>
  <rect x="64" y="56" width="8" height="8" class="pixel"/>
  <rect x="64" y="64" width="8" height="8" class="pixel"/>
  <rect x="56" y="72" width="8" height="8" class="pixel"/>
  <rect x="48" y="80" width="8" height="8" class="pixel"/>
  <rect x="40" y="88" width="8" height="8" class="pixel"/>
  <rect x="32" y="96" width="8" height="8" class="pixel"/>
  <rect x="24" y="104" width="8" height="8" class="pixel"/>
  
  <!-- Head -->
  <rect x="48" y="16" width="8" height="8" class="pixel"/>
  <rect x="56" y="16" width="8" height="8" class="pixel"/>
  <rect x="64" y="16" width="8" height="8" class="pixel"/>
  <rect x="72" y="16" width="8" height="8" class="pixel"/>
  <rect x="80" y="24" width="8" height="8" class="pixel"/>
  <rect x="88" y="32" width="8" height="8" class="pixel"/>
  <rect x="88" y="40" width="8" height="8" class="pixel"/>
  <rect x="80" y="48" width="8" height="8" class="pixel"/>
  <rect x="72" y="48" width="8" height="8" class="pixel"/>
  
  <!-- Fill head -->
  <rect x="56" y="8" width="8" height="8" class="pixel"/>
  <rect x="64" y="8" width="8" height="8" class="pixel"/>
  <rect x="48" y="8" width="8" height="8" class="pixel"/>
  <rect x="72" y="8" width="8" height="8" class="pixel"/>
  <rect x="80" y="16" width="8" height="8" class="pixel"/>
  <rect x="72" y="24" width="8" height="8" class="pixel"/>
  <rect x="80" y="32" width="8" height="8" class="pixel"/>
  <rect x="80" y="40" width="8" height="8" class="pixel"/>
  <rect x="72" y="40" width="8" height="8" class="pixel"/>
  <rect x="72" y="32" width="8" height="8" class="pixel"/>
  
  <!-- Snout -->
  <rect x="96" y="32" width="8" height="8" class="pixel"/>
  <rect x="104" y="32" width="8" height="8" class="pixel"/>
  <rect x="96" y="40" width="8" height="8" class="pixel"/>
  <rect x="104" y="40" width="8" height="8" class="pixel"/>
  <rect x="112" y="36" width="8" height="8" class="pixel"/>
  
  <!-- Eye -->
  <rect x="72" y="24" width="8" height="8" class="pixel-eye"/>
  
  <!-- Crown -->
  <rect x="48" y="0" width="8" height="8" class="pixel-fin"/>
  <rect x="56" y="0" width="8" height="8" class="pixel-fin"/>
  <rect x="64" y="0" width="8" height="8" class="pixel-fin"/>
  <rect x="72" y="0" width="8" height="8" class="pixel-fin"/>
  
  <!-- Dorsal fin -->
  <rect x="56" y="32" width="8" height="8" class="pixel-fin"/>
  <rect x="48" y="40" width="8" height="8" class="pixel-fin"/>
  <rect x="56" y="48" width="8" height="8" class="pixel-fin"/>
  <rect x="48" y="56" width="8" height="8" class="pixel-fin"/>
  <rect x="56" y="64" width="8" height="8" class="pixel-fin"/>
  
  <!-- Pectoral fin -->
  <rect x="72" y="56" width="8" height="8" class="pixel-fin"/>
  <rect x="80" y="64" width="8" height="8" class="pixel-fin"/>
  <rect x="72" y="72" width="8" height="8" class="pixel-fin"/>
  
  <!-- Tail -->
  <rect x="16" y="96" width="8" height="8" class="pixel-fin"/>
  <rect x="8" y="88" width="8" height="8" class="pixel-fin"/>
  <rect x="16" y="112" width="8" height="8" class="pixel-fin"/>
  <rect x="8" y="104" width="8" height="8" class="pixel-fin"/>
  <rect x="32" y="104" width="8" height="8" class="pixel-fin"/>
  <rect x="40" y="96" width="8" height="8" class="pixel-fin"/>
  <rect x="32" y="112" width="8" height="8" class="pixel-fin"/>
  <rect x="40" y="112" width="8" height="8" class="pixel-fin"/>
</svg>
