<svg width="128" height="128" viewBox="0 0 128 128" xmlns="http://www.w3.org/2000/svg">
  <style>
    .pixel { fill: #E67E22; }
    .pixel-dark { fill: #BA6C1C; }
    .pixel-light { fill: #F39C12; }
    .pixel-eye { fill: #000000; }
    .pixel-shell { fill: #D35400; }
  </style>
  
  <!-- Starfish center -->
  <rect x="56" y="56" width="8" height="8" class="pixel"/>
  <rect x="64" y="56" width="8" height="8" class="pixel"/>
  <rect x="56" y="64" width="8" height="8" class="pixel"/>
  <rect x="64" y="64" width="8" height="8" class="pixel"/>
  
  <!-- Top arm -->
  <rect x="56" y="48" width="8" height="8" class="pixel"/>
  <rect x="64" y="48" width="8" height="8" class="pixel"/>
  <rect x="56" y="40" width="8" height="8" class="pixel"/>
  <rect x="64" y="40" width="8" height="8" class="pixel"/>
  <rect x="56" y="32" width="8" height="8" class="pixel"/>
  <rect x="64" y="32" width="8" height="8" class="pixel"/>
  <rect x="48" y="24" width="8" height="8" class="pixel"/>
  <rect x="56" y="24" width="8" height="8" class="pixel"/>
  <rect x="64" y="24" width="8" height="8" class="pixel"/>
  <rect x="72" y="24" width="8" height="8" class="pixel"/>
  <rect x="48" y="16" width="8" height="8" class="pixel"/>
  <rect x="56" y="16" width="8" height="8" class="pixel"/>
  <rect x="64" y="16" width="8" height="8" class="pixel"/>
  <rect x="72" y="16" width="8" height="8" class="pixel"/>
  <rect x="56" y="8" width="8" height="8" class="pixel"/>
  <rect x="64" y="8" width="8" height="8" class="pixel"/>
  
  <!-- Bottom arm -->
  <rect x="56" y="72" width="8" height="8" class="pixel"/>
  <rect x="64" y="72" width="8" height="8" class="pixel"/>
  <rect x="56" y="80" width="8" height="8" class="pixel"/>
  <rect x="64" y="80" width="8" height="8" class="pixel"/>
  <rect x="56" y="88" width="8" height="8" class="pixel"/>
  <rect x="64" y="88" width="8" height="8" class="pixel"/>
  <rect x="48" y="96" width="8" height="8" class="pixel"/>
  <rect x="56" y="96" width="8" height="8" class="pixel"/>
  <rect x="64" y="96" width="8" height="8" class="pixel"/>
  <rect x="72" y="96" width="8" height="8" class="pixel"/>
  <rect x="48" y="104" width="8" height="8" class="pixel"/>
  <rect x="56" y="104" width="8" height="8" class="pixel"/>
  <rect x="64" y="104" width="8" height="8" class="pixel"/>
  <rect x="72" y="104" width="8" height="8" class="pixel"/>
  <rect x="56" y="112" width="8" height="8" class="pixel"/>
  <rect x="64" y="112" width="8" height="8" class="pixel"/>
  
  <!-- Left arm -->
  <rect x="48" y="56" width="8" height="8" class="pixel"/>
  <rect x="48" y="64" width="8" height="8" class="pixel"/>
  <rect x="40" y="56" width="8" height="8" class="pixel"/>
  <rect x="40" y="64" width="8" height="8" class="pixel"/>
  <rect x="32" y="56" width="8" height="8" class="pixel"/>
  <rect x="32" y="64" width="8" height="8" class="pixel"/>
  <rect x="24" y="48" width="8" height="8" class="pixel"/>
  <rect x="24" y="56" width="8" height="8" class="pixel"/>
  <rect x="24" y="64" width="8" height="8" class="pixel"/>
  <rect x="24" y="72" width="8" height="8" class="pixel"/>
  <rect x="16" y="48" width="8" height="8" class="pixel"/>
  <rect x="16" y="56" width="8" height="8" class="pixel"/>
  <rect x="16" y="64" width="8" height="8" class="pixel"/>
  <rect x="16" y="72" width="8" height="8" class="pixel"/>
  <rect x="8" y="56" width="8" height="8" class="pixel"/>
  <rect x="8" y="64" width="8" height="8" class="pixel"/>
  
  <!-- Right arm -->
  <rect x="72" y="56" width="8" height="8" class="pixel"/>
  <rect x="72" y="64" width="8" height="8" class="pixel"/>
  <rect x="80" y="56" width="8" height="8" class="pixel"/>
  <rect x="80" y="64" width="8" height="8" class="pixel"/>
  <rect x="88" y="56" width="8" height="8" class="pixel"/>
  <rect x="88" y="64" width="8" height="8" class="pixel"/>
  <rect x="96" y="48" width="8" height="8" class="pixel"/>
  <rect x="96" y="56" width="8" height="8" class="pixel"/>
  <rect x="96" y="64" width="8" height="8" class="pixel"/>
  <rect x="96" y="72" width="8" height="8" class="pixel"/>
  <rect x="104" y="48" width="8" height="8" class="pixel"/>
  <rect x="104" y="56" width="8" height="8" class="pixel"/>
  <rect x="104" y="64" width="8" height="8" class="pixel"/>
  <rect x="104" y="72" width="8" height="8" class="pixel"/>
  <rect x="112" y="56" width="8" height="8" class="pixel"/>
  <rect x="112" y="64" width="8" height="8" class="pixel"/>
  
  <!-- Top-left arm -->
  <rect x="48" y="48" width="8" height="8" class="pixel"/>
  <rect x="40" y="40" width="8" height="8" class="pixel"/>
  <rect x="32" y="32" width="8" height="8" class="pixel"/>
  <rect x="24" y="24" width="8" height="8" class="pixel"/>
  <rect x="16" y="16" width="8" height="8" class="pixel"/>
  <rect x="32" y="24" width="8" height="8" class="pixel"/>
  <rect x="24" y="32" width="8" height="8" class="pixel"/>
  <rect x="16" y="24" width="8" height="8" class="pixel"/>
  <rect x="24" y="16" width="8" height="8" class="pixel"/>
  
  <!-- Top-right arm -->
  <rect x="72" y="48" width="8" height="8" class="pixel"/>
  <rect x="80" y="40" width="8" height="8" class="pixel"/>
  <rect x="88" y="32" width="8" height="8" class="pixel"/>
  <rect x="96" y="24" width="8" height="8" class="pixel"/>
  <rect x="104" y="16" width="8" height="8" class="pixel"/>
  <rect x="88" y="24" width="8" height="8" class="pixel"/>
  <rect x="96" y="32" width="8" height="8" class="pixel"/>
  <rect x="104" y="24" width="8" height="8" class="pixel"/>
  <rect x="96" y="16" width="8" height="8" class="pixel"/>
  
  <!-- Bottom-left arm -->
  <rect x="48" y="72" width="8" height="8" class="pixel"/>
  <rect x="40" y="80" width="8" height="8" class="pixel"/>
  <rect x="32" y="88" width="8" height="8" class="pixel"/>
  <rect x="24" y="96" width="8" height="8" class="pixel"/>
  <rect x="16" y="104" width="8" height="8" class="pixel"/>
  <rect x="32" y="96" width="8" height="8" class="pixel"/>
  <rect x="24" y="88" width="8" height="8" class="pixel"/>
  <rect x="16" y="96" width="8" height="8" class="pixel"/>
  <rect x="24" y="104" width="8" height="8" class="pixel"/>
  
  <!-- Bottom-right arm -->
  <rect x="72" y="72" width="8" height="8" class="pixel"/>
  <rect x="80" y="80" width="8" height="8" class="pixel"/>
  <rect x="88" y="88" width="8" height="8" class="pixel"/>
  <rect x="96" y="96" width="8" height="8" class="pixel"/>
  <rect x="104" y="104" width="8" height="8" class="pixel"/>
  <rect x="88" y="96" width="8" height="8" class="pixel"/>
  <rect x="96" y="88" width="8" height="8" class="pixel"/>
  <rect x="104" y="96" width="8" height="8" class="pixel"/>
  <rect x="96" y="104" width="8" height="8" class="pixel"/>
  
  <!-- Center eye -->
  <rect x="60" y="60" width="4" height="4" class="pixel-eye"/>
</svg>
