<svg width="128" height="128" viewBox="0 0 128 128" xmlns="http://www.w3.org/2000/svg">
  <style>
    .pixel { fill: #2ECC71; }
    .pixel-dark { fill: #27AE60; }
    .pixel-light { fill: #58D68D; }
    .pixel-eye { fill: #000000; }
    .pixel-shell { fill: #F39C12; }
    .pixel-shell-dark { fill: #E67E22; }
  </style>
  
  <!-- Turtle shell -->
  <rect x="32" y="40" width="8" height="8" class="pixel-shell"/>
  <rect x="40" y="32" width="8" height="8" class="pixel-shell"/>
  <rect x="48" y="24" width="8" height="8" class="pixel-shell"/>
  <rect x="56" y="24" width="8" height="8" class="pixel-shell"/>
  <rect x="64" y="24" width="8" height="8" class="pixel-shell"/>
  <rect x="72" y="24" width="8" height="8" class="pixel-shell"/>
  <rect x="80" y="32" width="8" height="8" class="pixel-shell"/>
  <rect x="88" y="40" width="8" height="8" class="pixel-shell"/>
  <rect x="96" y="48" width="8" height="8" class="pixel-shell"/>
  <rect x="96" y="56" width="8" height="8" class="pixel-shell"/>
  <rect x="96" y="64" width="8" height="8" class="pixel-shell"/>
  <rect x="88" y="72" width="8" height="8" class="pixel-shell"/>
  <rect x="80" y="80" width="8" height="8" class="pixel-shell"/>
  <rect x="72" y="88" width="8" height="8" class="pixel-shell"/>
  <rect x="64" y="88" width="8" height="8" class="pixel-shell"/>
  <rect x="56" y="88" width="8" height="8" class="pixel-shell"/>
  <rect x="48" y="88" width="8" height="8" class="pixel-shell"/>
  <rect x="40" y="80" width="8" height="8" class="pixel-shell"/>
  <rect x="32" y="72" width="8" height="8" class="pixel-shell"/>
  <rect x="24" y="64" width="8" height="8" class="pixel-shell"/>
  <rect x="24" y="56" width="8" height="8" class="pixel-shell"/>
  <rect x="24" y="48" width="8" height="8" class="pixel-shell"/>
  
  <!-- Fill shell -->
  <rect x="32" y="48" width="8" height="8" class="pixel-shell"/>
  <rect x="40" y="40" width="8" height="8" class="pixel-shell"/>
  <rect x="48" y="32" width="8" height="8" class="pixel-shell"/>
  <rect x="56" y="32" width="8" height="8" class="pixel-shell"/>
  <rect x="64" y="32" width="8" height="8" class="pixel-shell"/>
  <rect x="72" y="32" width="8" height="8" class="pixel-shell"/>
  <rect x="80" y="40" width="8" height="8" class="pixel-shell"/>
  <rect x="88" y="48" width="8" height="8" class="pixel-shell"/>
  <rect x="88" y="56" width="8" height="8" class="pixel-shell"/>
  <rect x="88" y="64" width="8" height="8" class="pixel-shell"/>
  <rect x="80" y="72" width="8" height="8" class="pixel-shell"/>
  <rect x="72" y="80" width="8" height="8" class="pixel-shell"/>
  <rect x="64" y="80" width="8" height="8" class="pixel-shell"/>
  <rect x="56" y="80" width="8" height="8" class="pixel-shell"/>
  <rect x="48" y="80" width="8" height="8" class="pixel-shell"/>
  <rect x="40" y="72" width="8" height="8" class="pixel-shell"/>
  <rect x="32" y="64" width="8" height="8" class="pixel-shell"/>
  <rect x="32" y="56" width="8" height="8" class="pixel-shell"/>
  <rect x="40" y="48" width="8" height="8" class="pixel-shell"/>
  <rect x="48" y="40" width="8" height="8" class="pixel-shell"/>
  <rect x="56" y="40" width="8" height="8" class="pixel-shell"/>
  <rect x="64" y="40" width="8" height="8" class="pixel-shell"/>
  <rect x="72" y="40" width="8" height="8" class="pixel-shell"/>
  <rect x="80" y="48" width="8" height="8" class="pixel-shell"/>
  <rect x="80" y="56" width="8" height="8" class="pixel-shell"/>
  <rect x="80" y="64" width="8" height="8" class="pixel-shell"/>
  <rect x="72" y="72" width="8" height="8" class="pixel-shell"/>
  <rect x="64" y="72" width="8" height="8" class="pixel-shell"/>
  <rect x="56" y="72" width="8" height="8" class="pixel-shell"/>
  <rect x="48" y="72" width="8" height="8" class="pixel-shell"/>
  <rect x="40" y="64" width="8" height="8" class="pixel-shell"/>
  <rect x="40" y="56" width="8" height="8" class="pixel-shell"/>
  <rect x="48" y="48" width="8" height="8" class="pixel-shell"/>
  <rect x="56" y="48" width="8" height="8" class="pixel-shell"/>
  <rect x="64" y="48" width="8" height="8" class="pixel-shell"/>
  <rect x="72" y="48" width="8" height="8" class="pixel-shell"/>
  <rect x="72" y="56" width="8" height="8" class="pixel-shell"/>
  <rect x="72" y="64" width="8" height="8" class="pixel-shell"/>
  <rect x="64" y="64" width="8" height="8" class="pixel-shell"/>
  <rect x="56" y="64" width="8" height="8" class="pixel-shell"/>
  <rect x="48" y="64" width="8" height="8" class="pixel-shell"/>
  <rect x="48" y="56" width="8" height="8" class="pixel-shell"/>
  <rect x="56" y="56" width="8" height="8" class="pixel-shell"/>
  <rect x="64" y="56" width="8" height="8" class="pixel-shell"/>
  
  <!-- Head -->
  <rect x="56" y="16" width="8" height="8" class="pixel"/>
  <rect x="64" y="16" width="8" height="8" class="pixel"/>
  <rect x="52" y="8" width="8" height="8" class="pixel"/>
  <rect x="60" y="8" width="8" height="8" class="pixel"/>
  <rect x="68" y="8" width="8" height="8" class="pixel"/>
  
  <!-- Eyes -->
  <rect x="56" y="12" width="4" height="4" class="pixel-eye"/>
  <rect x="64" y="12" width="4" height="4" class="pixel-eye"/>
  
  <!-- Flippers -->
  <rect x="16" y="40" width="8" height="8" class="pixel"/>
  <rect x="8" y="48" width="8" height="8" class="pixel"/>
  <rect x="8" y="56" width="8" height="8" class="pixel"/>
  <rect x="16" y="64" width="8" height="8" class="pixel"/>
  
  <rect x="104" y="40" width="8" height="8" class="pixel"/>
  <rect x="112" y="48" width="8" height="8" class="pixel"/>
  <rect x="112" y="56" width="8" height="8" class="pixel"/>
  <rect x="104" y="64" width="8" height="8" class="pixel"/>
  
  <rect x="48" y="96" width="8" height="8" class="pixel"/>
  <rect x="56" y="104" width="8" height="8" class="pixel"/>
  <rect x="64" y="104" width="8" height="8" class="pixel"/>
  <rect x="72" y="96" width="8" height="8" class="pixel"/>
  
  <rect x="40" y="16" width="8" height="8" class="pixel"/>
  <rect x="32" y="24" width="8" height="8" class="pixel"/>
  <rect x="32" y="32" width="8" height="8" class="pixel"/>
  <rect x="40" y="24" width="8" height="8" class="pixel"/>
  
  <rect x="80" y="16" width="8" height="8" class="pixel"/>
  <rect x="88" y="24" width="8" height="8" class="pixel"/>
  <rect x="88" y="32" width="8" height="8" class="pixel"/>
  <rect x="80" y="24" width="8" height="8" class="pixel"/>
</svg>
