<svg width="128" height="128" viewBox="0 0 128 128" xmlns="http://www.w3.org/2000/svg">
  <style>
    .pixel { fill: #3498DB; }
    .pixel-dark { fill: #2980B9; }
    .pixel-light { fill: #5DADE2; }
    .pixel-eye { fill: #000000; }
    .pixel-fin { fill: #2E86C1; }
  </style>
  
  <!-- Whale body -->
  <rect x="24" y="56" width="8" height="8" class="pixel"/>
  <rect x="32" y="48" width="8" height="8" class="pixel"/>
  <rect x="40" y="40" width="8" height="8" class="pixel"/>
  <rect x="48" y="32" width="8" height="8" class="pixel"/>
  <rect x="56" y="32" width="8" height="8" class="pixel"/>
  <rect x="64" y="32" width="8" height="8" class="pixel"/>
  <rect x="72" y="32" width="8" height="8" class="pixel"/>
  <rect x="80" y="40" width="8" height="8" class="pixel"/>
  <rect x="88" y="48" width="8" height="8" class="pixel"/>
  <rect x="96" y="56" width="8" height="8" class="pixel"/>
  <rect x="96" y="64" width="8" height="8" class="pixel"/>
  <rect x="88" y="72" width="8" height="8" class="pixel"/>
  <rect x="80" y="80" width="8" height="8" class="pixel"/>
  <rect x="72" y="80" width="8" height="8" class="pixel"/>
  <rect x="64" y="80" width="8" height="8" class="pixel"/>
  <rect x="56" y="80" width="8" height="8" class="pixel"/>
  <rect x="48" y="80" width="8" height="8" class="pixel"/>
  <rect x="40" y="72" width="8" height="8" class="pixel"/>
  <rect x="32" y="64" width="8" height="8" class="pixel"/>
  <rect x="24" y="64" width="8" height="8" class="pixel"/>
  
  <!-- Fill body -->
  <rect x="32" y="56" width="8" height="8" class="pixel"/>
  <rect x="40" y="48" width="8" height="8" class="pixel"/>
  <rect x="48" y="40" width="8" height="8" class="pixel"/>
  <rect x="56" y="40" width="8" height="8" class="pixel"/>
  <rect x="64" y="40" width="8" height="8" class="pixel"/>
  <rect x="72" y="40" width="8" height="8" class="pixel"/>
  <rect x="80" y="48" width="8" height="8" class="pixel"/>
  <rect x="88" y="56" width="8" height="8" class="pixel"/>
  <rect x="88" y="64" width="8" height="8" class="pixel"/>
  <rect x="80" y="72" width="8" height="8" class="pixel"/>
  <rect x="72" y="72" width="8" height="8" class="pixel"/>
  <rect x="64" y="72" width="8" height="8" class="pixel"/>
  <rect x="56" y="72" width="8" height="8" class="pixel"/>
  <rect x="48" y="72" width="8" height="8" class="pixel"/>
  <rect x="40" y="64" width="8" height="8" class="pixel"/>
  <rect x="40" y="56" width="8" height="8" class="pixel"/>
  <rect x="48" y="48" width="8" height="8" class="pixel"/>
  <rect x="56" y="48" width="8" height="8" class="pixel"/>
  <rect x="64" y="48" width="8" height="8" class="pixel"/>
  <rect x="72" y="48" width="8" height="8" class="pixel"/>
  <rect x="80" y="56" width="8" height="8" class="pixel"/>
  <rect x="80" y="64" width="8" height="8" class="pixel"/>
  <rect x="72" y="64" width="8" height="8" class="pixel"/>
  <rect x="64" y="64" width="8" height="8" class="pixel"/>
  <rect x="56" y="64" width="8" height="8" class="pixel"/>
  <rect x="48" y="64" width="8" height="8" class="pixel"/>
  <rect x="48" y="56" width="8" height="8" class="pixel"/>
  <rect x="56" y="56" width="8" height="8" class="pixel"/>
  <rect x="64" y="56" width="8" height="8" class="pixel"/>
  <rect x="72" y="56" width="8" height="8" class="pixel"/>
  
  <!-- Eye -->
  <rect x="72" y="48" width="8" height="8" class="pixel-eye"/>
  
  <!-- Tail -->
  <rect x="8" y="48" width="8" height="8" class="pixel-fin"/>
  <rect x="16" y="40" width="8" height="8" class="pixel-fin"/>
  <rect x="16" y="56" width="8" height="8" class="pixel-fin"/>
  <rect x="16" y="72" width="8" height="8" class="pixel-fin"/>
  <rect x="8" y="64" width="8" height="8" class="pixel-fin"/>
  
  <!-- Water spout -->
  <rect x="64" y="24" width="8" height="8" class="pixel-light"/>
  <rect x="64" y="16" width="8" height="8" class="pixel-light"/>
  <rect x="56" y="8" width="8" height="8" class="pixel-light"/>
  <rect x="72" y="8" width="8" height="8" class="pixel-light"/>
  <rect x="60" y="0" width="8" height="8" class="pixel-light"/>
  <rect x="68" y="0" width="8" height="8" class="pixel-light"/>
  
  <!-- Top fin -->
  <rect x="56" y="24" width="8" height="8" class="pixel-fin"/>
  <rect x="48" y="24" width="8" height="8" class="pixel-fin"/>
  
  <!-- Bottom fins -->
  <rect x="48" y="88" width="8" height="8" class="pixel-fin"/>
  <rect x="56" y="96" width="8" height="8" class="pixel-fin"/>
  <rect x="64" y="96" width="8" height="8" class="pixel-fin"/>
  <rect x="72" y="88" width="8" height="8" class="pixel-fin"/>
</svg>
